<?xml version="1.0" standalone="no"?>
<!DOCTYPE svg PUBLIC "-//W3C//DTD SVG 20010904//EN"
 "http://www.w3.org/TR/2001/REC-SVG-20010904/DTD/svg10.dtd">
<svg version="1.0" xmlns="http://www.w3.org/2000/svg"
 width="512.000000pt" height="512.000000pt" viewBox="0 0 512.000000 512.000000"
 preserveAspectRatio="xMidYMid meet">
<metadata>
Created by potrace 1.14, written by Peter Selinger 2001-2017
</metadata>
<g transform="translate(0.000000,512.000000) scale(0.100000,-0.100000)"
fill="#000000" stroke="none">
<path d="M3 3228 c3 -1886 3 -1893 24 -1989 92 -417 315 -749 657 -980 159
-108 347 -186 555 -232 96 -21 103 -21 1989 -24 l1892 -3 0 1838 c0 1211 -4
1866 -10 1922 -6 47 -22 134 -37 193 -24 104 -26 109 -49 104 -13 -2 -21 0
-18 4 3 5 0 9 -7 9 -7 0 -9 9 -6 23 6 21 6 21 -8 3 -8 -11 -16 -17 -16 -13 -1
4 -2 11 -3 17 0 5 -11 17 -23 25 -13 9 -23 23 -23 31 0 8 -5 14 -11 14 -5 0
-7 -6 -3 -12 4 -7 -2 -5 -13 5 -11 9 -22 15 -25 12 -2 -3 -5 2 -5 10 0 8 4 12
9 9 4 -3 8 -1 8 5 0 6 -17 15 -37 21 -21 6 -47 18 -58 27 l-20 16 20 -7 c19
-6 19 -5 3 8 -10 7 -18 18 -18 23 0 5 -12 15 -26 21 -14 7 -23 8 -19 3 3 -5 1
-12 -5 -16 -5 -3 -10 -1 -10 5 0 6 -4 8 -10 5 -6 -4 -7 1 -3 11 5 13 3 16 -9
11 -11 -4 -18 2 -22 18 -4 16 -16 26 -36 30 -17 4 -28 11 -24 16 3 5 0 9 -7 9
-9 0 -9 3 0 14 9 11 8 14 -6 12 -10 0 -17 5 -15 12 1 8 -2 11 -8 7 -6 -3 -8
-11 -5 -16 4 -5 2 -9 -3 -9 -13 0 -23 27 -16 44 3 8 0 17 -7 22 -7 4 -10 3 -6
-3 4 -6 -2 -13 -12 -16 -12 -3 -22 1 -25 10 -4 9 -2 11 6 7 6 -4 3 4 -8 18
-10 15 -20 22 -22 17 -7 -17 -21 -9 -17 9 2 10 -1 25 -7 33 -8 11 -9 10 -4 -3
7 -22 3 -22 -34 -3 -19 10 -30 23 -30 37 0 21 0 21 -15 2 -14 -19 -15 -19 -21
3 -3 13 -10 21 -14 18 -4 -2 -5 6 -3 18 3 16 -3 25 -21 33 -16 7 -26 8 -28 2
-2 -5 -10 6 -17 26 -13 33 -41 57 -41 36 0 -6 5 -10 10 -10 6 0 10 -5 10 -12
0 -6 -7 -4 -18 5 -10 10 -22 14 -26 10 -4 -4 -4 1 0 12 6 14 4 17 -9 12 -9 -3
-19 -2 -22 4 -4 5 -11 6 -17 3 -6 -4 -9 -3 -5 2 3 5 -1 20 -10 34 -10 18 -13
20 -9 5 6 -19 6 -20 -9 -1 -8 10 -12 24 -8 30 3 6 3 8 -2 4 -4 -4 -14 0 -22 8
-8 8 -19 11 -25 8 -7 -4 -8 -2 -4 4 4 7 3 12 -3 12 -6 0 -8 7 -5 15 4 8 2 15
-4 15 -6 0 -13 -6 -15 -12 -3 -8 -6 -5 -6 6 -1 15 -4 16 -16 6 -12 -10 -14 -8
-10 9 4 23 -10 29 -18 9 -3 -7 -6 -2 -6 12 -1 20 -3 22 -11 10 -8 -13 -10 -13
-10 2 0 12 -5 15 -17 11 -11 -4 -14 -3 -9 5 4 7 3 12 -1 12 -5 0 -18 7 -29 16
-10 8 -13 12 -5 8 9 -5 12 -3 7 4 -4 7 -14 12 -22 12 -14 0 -18 11 -15 37 1
10 -5 10 -23 3 -21 -8 -24 -7 -19 7 5 13 2 15 -16 10 -17 -4 -21 -2 -17 9 3 9
-2 18 -12 21 -14 6 -13 8 8 14 23 6 23 7 3 8 -12 1 -24 -3 -28 -8 -3 -6 -17
-4 -33 5 -23 12 -295 14 -1875 14 l-1847 0 3 -1892z m2777 1240 c-1 -7 -43
-161 -94 -343 l-93 -330 934 -3 933 -2 0 -1575 0 -1575 -835 0 -835 0 0 315 0
315 495 0 495 0 0 945 0 945 -682 -2 -682 -3 -313 -1125 c-172 -619 -329
-1185 -349 -1257 l-37 -133 -528 0 -529 0 0 315 0 315 258 0 257 0 259 933
c142 512 261 938 263 945 4 9 -97 12 -481 12 l-486 0 0 315 0 315 188 2 189 3
-63 295 c-35 162 -66 305 -69 318 l-5 22 313 0 314 0 41 -187 c22 -104 53
-248 69 -321 l28 -133 70 3 70 3 92 329 c51 181 95 336 97 343 8 19 716 19
716 1z m1980 -193 c0 -9 -6 -12 -17 -8 -11 4 -13 8 -5 11 7 2 9 9 6 14 -4 7
-2 8 4 4 7 -4 12 -14 12 -21z m-1358 -2045 c81 -322 148 -591 148 -597 0 -10
-70 -13 -318 -13 l-319 0 -148 587 c-81 323 -150 593 -152 600 -4 11 58 13
318 11 l322 -3 149 -585z"/>
<path d="M3838 5093 c7 -3 16 -2 19 1 4 3 -2 6 -13 5 -11 0 -14 -3 -6 -6z"/>
<path d="M4151 4789 c0 -9 6 -22 14 -29 10 -9 15 -9 15 -1 0 6 -4 11 -9 11 -5
0 -12 8 -14 18 -4 14 -5 14 -6 1z"/>
<path d="M4575 4750 c10 -11 20 -20 23 -20 3 0 -3 9 -13 20 -10 11 -20 20 -23
20 -3 0 3 -9 13 -20z"/>
<path d="M4745 4580 c10 -11 20 -20 23 -20 3 0 -3 9 -13 20 -10 11 -20 20 -23
20 -3 0 3 -9 13 -20z"/>
<path d="M4780 4536 c0 -2 8 -10 18 -17 15 -13 16 -12 3 4 -13 16 -21 21 -21
13z"/>
</g>
</svg>
